<mxfile host="app.diagrams.net" modified="2024-03-07T00:51:52.283Z" agent="Mozilla/5.0 (Windows NT 10.0; Win64; x64) AppleWebKit/537.36 (KHTML, like Gecko) Chrome/121.0.0.0 Safari/537.36 OPR/107.0.0.0 (Edition std-1)" version="24.0.2" etag="lTJTRzYvgKmwqus5WQjk" type="github">
  <diagram name="PÃ¡gina-1" id="7e_8LMaUPelky5e9xaPi">
    <mxGraphModel>
      <root>
        <mxCell id="0" />
        <mxCell id="1" parent="0" />
      </root>
    </mxGraphModel>
  </diagram>
</mxfile>
